
<svg width="current" height="current" viewBox="0 0 242 159" fill="none" xmlns="http://www.w3.org/2000/svg">
<path d="M74.7 64V134H55.3L28.7 102.2V134H5.7V64H25.1L51.7 95.8V64H74.7ZM112.171 135.6C106.371 135.6 100.704 134.967 95.1711 133.7C89.7044 132.367 85.2044 130.6 81.6711 128.4L89.2711 111.2C92.6044 113.133 96.3378 114.7 100.471 115.9C104.604 117.033 108.571 117.6 112.371 117.6C115.638 117.6 117.971 117.3 119.371 116.7C120.771 116.033 121.471 115.067 121.471 113.8C121.471 112.333 120.538 111.233 118.671 110.5C116.871 109.767 113.871 108.967 109.671 108.1C104.271 106.967 99.7711 105.767 96.1711 104.5C92.5711 103.167 89.4378 101.033 86.7711 98.1C84.1044 95.1 82.7711 91.0667 82.7711 86C82.7711 81.6 84.0044 77.6 86.4711 74C88.9378 70.4 92.6044 67.5667 97.4711 65.5C102.404 63.4333 108.371 62.4 115.371 62.4C120.171 62.4 124.871 62.9333 129.471 64C134.138 65 138.238 66.5 141.771 68.5L134.671 85.6C127.804 82.1333 121.304 80.4 115.171 80.4C109.104 80.4 106.071 81.8667 106.071 84.8C106.071 86.2 106.971 87.2667 108.771 88C110.571 88.6667 113.538 89.4 117.671 90.2C123.004 91.2 127.504 92.3667 131.171 93.7C134.838 94.9667 138.004 97.0667 140.671 100C143.404 102.933 144.771 106.933 144.771 112C144.771 116.4 143.538 120.4 141.071 124C138.604 127.533 134.904 130.367 129.971 132.5C125.104 134.567 119.171 135.6 112.171 135.6ZM214.294 134L214.094 102.1L198.894 127.7H188.494L173.294 103.2V134H151.794V64H171.194L193.994 101.3L216.194 64H235.594L235.794 134H214.294Z" fill="white"/>
<path d="M17.288 15.608H5.192V13.4H31.832V15.608H19.736V47H17.288V15.608ZM61.0869 44.792V47H37.9029V13.4H60.3669V15.608H40.3509V28.856H58.2549V31.016H40.3509V44.792H61.0869ZM90.7963 37.544H71.3083L67.0363 47H64.3963L79.8523 13.4H82.3003L97.7563 47H95.1163L90.7963 37.544ZM89.8843 35.48L81.0523 16.088L72.2683 35.48H89.8843ZM135.632 47L135.584 18.248L121.52 42.536H120.32L106.256 18.344V47H103.856V13.4H105.92L120.944 39.368L135.968 13.4H137.984L138.032 47H135.632Z" fill="white"/>
</svg>
